{"title":"Suicide Squad 2016 CAM UnKnOwN","uid":15507013,"size":995764663,"categoryP":"video","categoryS":"movies","magnet":"?xt=urn:btih:f790fd7f83382be1f99c09b37ce85ac63d9d94f7&amp;dn=Suicide+Squad+2016+CAM+UnKnOwN&amp;tr=udp%3A%2F%2Ftracker.leechers-paradise.org%3A6969&amp;tr=udp%3A%2F%2Fzer0day.ch%3A1337&amp;tr=udp%3A%2F%2Fopen.demonii.com%3A1337&amp;tr=udp%3A%2F%2Ftracker.coppersurfer.tk%3A6969&amp;tr=udp%3A%2F%2Fexodus.desync.com%3A6969","seeders":8,"leechers":1,"uploader":"loverulz","files":2,"time":1470600608,"description":"Suicide Squad 2016 CAM UnKnOwN \r\n\r  http://www.imdb.com/title/tt1386697/                            \r\n                                                                              \r\n Encoded By .......:UnKnOwN                                                   \r\n Runtime ..........:1:51                                                      \r\n IMDb URL .........: http://www.imdb.com/title/tt1386697/                     \r\n Language .........:English                                                   \r\n File Size ........: 950 mb                                                   \r\n Release Date ......... 2016                                                 \r\n Source       Mr.Miyagi                                                      \r\n File Type    ......... Single MP4                                            \r\n Genre        ........................... Action \r\n\r\n Video                                                                        \r\n ID                                       : 1                                 \r\n Format                                   : AVC                               \r\n Format/Info                              : Advanced Video Codec              \r\n Format profile                           :                        \r\n Format settings, CABAC                   : No                                \r\n Format settings, ReFrames                : 2 frames                          \r\n Format settings, GOP                     : M=1, N=60                         \r\n Codec ID                                 : avc1                              \r\n Codec ID/Info                            : Advanced Video Coding             \r\n Duration                                 : 1 h 51 min                        \r\n Source duration                          : 1 h 51 min                       \r\n Bit rate                                 : 986 kb/s                          \r\n Width                                    : 854 pixels                        \r\n Height                                   : 480 pixels                        \r\n Display aspect ratio                     : 16:9                              \r\n Frame rate mode                          : Constant                          \r\n Frame rate                               : 29.970 (29970/1000) FPS           \r\n Color space                              : YUV                               \r\n Chroma subsampling                       : 4:2:0                             \r\n Bit depth                                : 8 bits                            \r\n Scan type                                : Progressive                       \r\n Bits/(Pixel*Frame)                       : 0.080                             \r\n Stream size                              : 790 MiB (83%)                     \r\n Source stream size                       : 790 MiB (83%)                     \r\n Encoded date                             : UTC 2016-08-07 13:13:36           \r\n Tagged date                              : UTC 2016-08-07 13:13:36           \r\n mdhd_Duration                            : 6715442                           \r\n                                                                              \r\n Audio                                                                        \r\n ID                                       : 2                                 \r\n Format                                   : AAC                               \r\n Format/Info                              : Advanced Audio Codec              \r\n Format profile                           : LC                                \r\n Codec ID                                 : 40                                \r\n Duration                                 : 1 h 51 min                        \r\n Bit rate mode                            : Constant                          \r\n Bit rate                                 : 192 kb/s                          \r\n Channel(s)                               : 2 channels                        \r\n Channel positions                        : Front: L R                        \r\n Sampling rate                            : 48.0 kHz                          \r\n Frame rate                               : 46.875 FPS (1024 spf)             \r\n Compression mode                         : Lossy                             \r\n Stream size                              : 158 MiB (17%)                     \r\n Encoded date                             : UTC 2016-08-07 13:13:36           \r\n Tagged date                              : UTC 2016-08-07 13:13:36           \r\n mdhd_Duration                            : 6715456 \r\n \nhttps://postimg.org/image/7iarx5ad3/","torrent":{"xt":"urn:btih:f790fd7f83382be1f99c09b37ce85ac63d9d94f7","amp;dn":"Suicide+Squad+2016+CAM+UnKnOwN","amp;tr":["udp%3A%2F%2Ftracker.leechers-paradise.org%3A6969","udp%3A%2F%2Fzer0day.ch%3A1337","udp%3A%2F%2Fopen.demonii.com%3A1337","udp%3A%2F%2Ftracker.coppersurfer.tk%3A6969","udp%3A%2F%2Fexodus.desync.com%3A6969"],"infoHash":"f790fd7f83382be1f99c09b37ce85ac63d9d94f7","infoHashBuffer":{"type":"Buffer","data":[247,144,253,127,131,56,43,225,249,156,9,179,124,232,90,198,61,157,148,247]},"announce":[],"urlList":[]}}